<svg id="Layer_1" data-name="Layer 1" xmlns="http://www.w3.org/2000/svg" viewBox="0 0 161.25 181.64"><defs><radialGradient id="radial-gradient" cx="404.78" cy="309.38" fx="485.763" fy="337.954" r="85.87" gradientUnits="userSpaceOnUse"><stop offset="0" stop-color="#fff33b"/><stop offset=".04" stop-color="#fee72e"/><stop offset=".12" stop-color="#fed51b"/><stop offset=".2" stop-color="#fdca10"/><stop offset=".28" stop-color="#fdc70c"/><stop offset=".67" stop-color="#f3903f"/><stop offset=".89" stop-color="#ed683c"/><stop offset="1" stop-color="#e93e3a"/></radialGradient><style>.cls-3{fill:#231f20}.cls-4{fill:#f1f2f2}</style></defs><path d="M478 296.52l-131.57-75.95a14.85 14.85 0 00-22.27 12.86v151.9a14.85 14.85 0 0022.27 12.86L478 322.24a14.85 14.85 0 000-25.72z" transform="translate(-324.16 -218.56)" fill="url(#radial-gradient)"/><path d="M34.47 78.25h46.15v9.46a23.08 23.08 0 01-23.08 23.09h0a23.07 23.07 0 01-23.07-23.07v-9.48h0z" fill="#fff" stroke="#231f20" stroke-miterlimit="10" stroke-width="3.69"/><path class="cls-3" d="M39.77 76.34h35.56v11.18a17.78 17.78 0 01-17.79 17.78 17.77 17.77 0 01-17.77-17.77V76.34zM57.47 47.37a17.78 17.78 0 0117.79 17.79v11.18H39.7v-11.2a17.77 17.77 0 0117.77-17.77z"/><rect class="cls-4" x="39.77" y="67.35" width="35.55" height="3.21" rx="1.39"/><rect class="cls-4" x="39.7" y="73.13" width="35.55" height="3.21" rx="1.6"/><rect class="cls-4" x="39.77" y="61.56" width="35.55" height="3.21" rx="1.6"/><rect class="cls-4" x="41.78" y="55.77" width="31.36" height="3.21" rx="1.6"/><rect class="cls-4" x="47.29" y="49.98" width="20.48" height="3.21" rx="1.6"/><path class="cls-3" d="M54.34 111.09h6.43v15.28h-6.43zM41.37 126.37h32.36a6.9 6.9 0 016.9 6.9H34.47a6.9 6.9 0 016.9-6.9z"/></svg>